REM DIRINDEX 1\2,1\3,1\4,1\5
REM DIRNAME folder01,folder02,folder03,folder04,folder05
TITLE ""
FILE "P1Q_t_1140-1149.mp3" MP3
  TRACK 01 AUDIO
    TITLE "3:cjc005_4326"
    INDEX 01 00:00:00
  TRACK 02 AUDIO
    TITLE "0:"
    INDEX 01 00:01:15
  TRACK 03 AUDIO
    TITLE "4:cjc005_4327"
    INDEX 01 00:01:44
  TRACK 04 AUDIO
    TITLE "0:"
    INDEX 01 00:03:00
  TRACK 05 AUDIO
    TITLE "5:cjc005_4328"
    INDEX 01 00:03:25
  TRACK 06 AUDIO
    TITLE "0:"
    INDEX 01 00:06:65
  TRACK 07 AUDIO
    TITLE "3:cjc005_4329"
    INDEX 01 00:07:47
  TRACK 08 AUDIO
    TITLE "0:"
    INDEX 01 00:08:60
  TRACK 09 AUDIO
    TITLE "4:cjc005_4330"
    INDEX 01 00:09:16
  TRACK 10 AUDIO
    TITLE "0:"
    INDEX 01 00:10:14
  TRACK 11 AUDIO
    TITLE "5:cjc005_4331"
    INDEX 01 00:10:39
  TRACK 12 AUDIO
    TITLE "0:"
    INDEX 01 00:14:66
  TRACK 13 AUDIO
    TITLE "3:cjc005_4332"
    INDEX 01 00:15:44
  TRACK 14 AUDIO
    TITLE "0:"
    INDEX 01 00:17:06
  TRACK 15 AUDIO
    TITLE "4:cjc005_4333"
    INDEX 01 00:17:29
  TRACK 16 AUDIO
    TITLE "0:"
    INDEX 01 00:18:42
  TRACK 17 AUDIO
    TITLE "5:cjc005_4334"
    INDEX 01 00:18:64
  TRACK 18 AUDIO
    TITLE "0:"
    INDEX 01 00:23:32
  TRACK 19 AUDIO
    TITLE "3:cjc005_4335"
    INDEX 01 00:24:06
  TRACK 20 AUDIO
    TITLE "0:"
    INDEX 01 00:25:03
  TRACK 21 AUDIO
    TITLE "4:cjc005_4336"
    INDEX 01 00:25:33
  TRACK 22 AUDIO
    TITLE "0:"
    INDEX 01 00:26:52
  TRACK 23 AUDIO
    TITLE "5:cjc005_4337"
    INDEX 01 00:26:73
  TRACK 24 AUDIO
    TITLE "0:"
    INDEX 01 00:30:69
  TRACK 25 AUDIO
    TITLE "3:cjc005_4338"
    INDEX 01 00:31:45
  TRACK 26 AUDIO
    TITLE "0:"
    INDEX 01 00:32:54
  TRACK 27 AUDIO
    TITLE "4:cjc005_4339"
    INDEX 01 00:33:17
  TRACK 28 AUDIO
    TITLE "0:"
    INDEX 01 00:34:38
  TRACK 29 AUDIO
    TITLE "5:cjc005_4340"
    INDEX 01 00:34:61
  TRACK 30 AUDIO
    TITLE "0:"
    INDEX 01 00:37:36
  TRACK 31 AUDIO
    TITLE "3:cjc005_4341"
    INDEX 01 00:38:14
  TRACK 32 AUDIO
    TITLE "0:"
    INDEX 01 00:39:31
  TRACK 33 AUDIO
    TITLE "4:cjc005_4342"
    INDEX 01 00:39:58
  TRACK 34 AUDIO
    TITLE "0:"
    INDEX 01 00:41:04
  TRACK 35 AUDIO
    TITLE "5:cjc005_4343"
    INDEX 01 00:41:28
  TRACK 36 AUDIO
    TITLE "0:"
    INDEX 01 00:44:73
  TRACK 37 AUDIO
    TITLE "3:cjc005_4344"
    INDEX 01 00:45:51
  TRACK 38 AUDIO
    TITLE "0:"
    INDEX 01 00:46:66
  TRACK 39 AUDIO
    TITLE "4:cjc005_4345"
    INDEX 01 00:47:17
  TRACK 40 AUDIO
    TITLE "0:"
    INDEX 01 00:48:28
  TRACK 41 AUDIO
    TITLE "5:cjc005_4346"
    INDEX 01 00:48:48
  TRACK 42 AUDIO
    TITLE "0:"
    INDEX 01 00:53:31
  TRACK 43 AUDIO
    TITLE "3:cjc005_4347"
    INDEX 01 00:54:03
  TRACK 44 AUDIO
    TITLE "0:"
    INDEX 01 00:55:20
  TRACK 45 AUDIO
    TITLE "4:cjc005_4348"
    INDEX 01 00:55:46
  TRACK 46 AUDIO
    TITLE "0:"
    INDEX 01 00:56:72
  TRACK 47 AUDIO
    TITLE "5:cjc005_4349"
    INDEX 01 00:57:17
  TRACK 48 AUDIO
    TITLE "0:"
    INDEX 01 01:00:41
  TRACK 49 AUDIO
    TITLE "3:cjc005_4350"
    INDEX 01 01:01:23
  TRACK 50 AUDIO
    TITLE "0:"
    INDEX 01 01:02:42
  TRACK 51 AUDIO
    TITLE "4:cjc005_4351"
    INDEX 01 01:02:67
  TRACK 52 AUDIO
    TITLE "0:"
    INDEX 01 01:04:15
  TRACK 53 AUDIO
    TITLE "5:cjc005_4352"
    INDEX 01 01:04:37
  TRACK 54 AUDIO
    TITLE "0:"
    INDEX 01 01:08:23
  TRACK 55 AUDIO
    TITLE "3:cjc005_4353"
    INDEX 01 01:09:01
  TRACK 56 AUDIO
    TITLE "0:"
    INDEX 01 01:10:06
  TRACK 57 AUDIO
    TITLE "4:cjc005_4354"
    INDEX 01 01:10:35
  TRACK 58 AUDIO
    TITLE "0:"
    INDEX 01 01:11:64
  TRACK 59 AUDIO
    TITLE "5:cjc005_4355"
    INDEX 01 01:12:13
  TRACK 60 AUDIO
    TITLE "0:"
    INDEX 01 01:16:71
